<?xml version="1.0" encoding="UTF-8"?>
<svg width="101px" height="101px" viewBox="0 0 101 101" version="1.1" xmlns="http://www.w3.org/2000/svg" xmlns:xlink="http://www.w3.org/1999/xlink">
    <title>Group 2</title>
    <g id="Page-1" stroke="none" stroke-width="1" fill="none" fill-rule="evenodd">
        <g id="Group-2" transform="translate(0.068808, 0.855450)" fill-rule="nonzero">
            <path d="M100,50.00458 C100,77.6206128 77.6205794,100.009227 50.0045933,100.009227 C22.3886073,100.009227 0,77.6206128 0,50.00458 C0,22.3886139 22.3886073,0 50.0045933,0 C77.6205794,0 100,22.3886139 100,50.00458" id="Path" fill="#EE3023"></path>
            <path d="M50.3996281,77.8871525 C36.665132,77.9336806 22.3702272,66.2103717 22.3056857,47.3771706 C22.2599201,34.9287924 28.9848377,22.9398159 37.5654552,15.8291237 C45.9439587,8.90216538 57.41846,4.44648267 67.8180975,4.40974921 C69.1593956,4.40974921 70.5650007,4.5197496 71.4193838,4.81375066 C62.3242977,6.69709078 55.0849783,15.1674546 55.1125384,24.7678892 C55.1125384,25.0892237 55.1398718,25.4292249 55.1765386,25.5854921 C70.3993201,29.2970388 77.3079116,38.4840052 77.353952,51.1895176 C77.3905186,63.9042967 67.3584425,77.8316802 50.3993214,77.8871525" id="Path" fill="#FFFFFF"></path>
        </g>
    </g>
</svg>